<svg width="75" height="75" viewBox="0 0 75 75" fill="none" xmlns="http://www.w3.org/2000/svg">
<rect width="75" height="75" rx="12.4805" fill="#ECFDF5"/>
<path d="M46.6055 46.6211C47.3656 46.6211 48.0117 46.3551 48.5437 45.823C49.0758 45.2909 49.3418 44.6449 49.3418 43.8848C49.3418 43.1247 49.0758 42.4786 48.5437 41.9465C48.0117 41.4145 47.3656 41.1484 46.6055 41.1484C45.8454 41.1484 45.1993 41.4145 44.6673 41.9465C44.1352 42.4786 43.8692 43.1247 43.8692 43.8848C43.8692 44.6449 44.1352 45.2909 44.6673 45.823C45.1993 46.3551 45.8454 46.6211 46.6055 46.6211ZM46.6055 52.0938C47.548 52.0938 48.4145 51.8733 49.205 51.4325C49.9955 50.9916 50.634 50.4063 51.1204 49.6767C50.4516 49.2814 49.7371 48.9774 48.977 48.7646C48.2169 48.5517 47.4264 48.4453 46.6055 48.4453C45.7846 48.4453 44.9941 48.5517 44.234 48.7646C43.4739 48.9774 42.7594 49.2814 42.0906 49.6767C42.577 50.4063 43.2155 50.9916 44.006 51.4325C44.7965 51.8733 45.663 52.0938 46.6055 52.0938ZM37.4844 55.7422C33.2583 54.6781 29.7695 52.2534 27.018 48.4681C24.2664 44.6829 22.8907 40.4796 22.8907 35.8582V24.7305L37.4844 19.2578L52.0782 24.7305V35.0829C51.5005 34.8397 50.9076 34.6193 50.2995 34.4216C49.6915 34.224 49.0682 34.0796 48.4297 33.9884V27.2844L37.4844 23.1799L26.5391 27.2844V35.8582C26.5391 37.2872 26.7291 38.7161 27.1092 40.1451C27.4892 41.5741 28.0213 42.9347 28.7054 44.2268C29.3894 45.519 30.2179 46.7123 31.1909 47.8068C32.1638 48.9014 33.2431 49.8135 34.4288 50.5432C34.7633 51.5161 35.2041 52.4434 35.7514 53.3251C36.2987 54.2068 36.9219 54.9973 37.6212 55.6966C37.5908 55.6966 37.568 55.7042 37.5528 55.7194C37.5376 55.7346 37.5148 55.7422 37.4844 55.7422ZM46.6055 55.7422C44.082 55.7422 41.9309 54.8529 40.1523 53.0743C38.3737 51.2957 37.4844 49.1446 37.4844 46.6211C37.4844 44.0976 38.3737 41.9465 40.1523 40.1679C41.9309 38.3893 44.082 37.5 46.6055 37.5C49.129 37.5 51.2801 38.3893 53.0587 40.1679C54.8373 41.9465 55.7266 44.0976 55.7266 46.6211C55.7266 49.1446 54.8373 51.2957 53.0587 53.0743C51.2801 54.8529 49.129 55.7422 46.6055 55.7422Z" fill="#059669"/>
</svg>
