<svg width="75" height="75" viewBox="0 0 75 75" fill="none" xmlns="http://www.w3.org/2000/svg">
<rect width="75" height="75" rx="12.4805" fill="#FFFBEB"/>
<path d="M24.7148 55.7422C23.7115 55.7422 22.8526 55.3849 22.1381 54.6704C21.4236 53.956 21.0664 53.0971 21.0664 52.0937V31.5257C20.5191 31.1912 20.0783 30.758 19.7438 30.2259C19.4094 29.6938 19.2422 29.0782 19.2422 28.3789V22.9062C19.2422 21.9029 19.5994 21.044 20.3139 20.3295C21.0284 19.615 21.8873 19.2578 22.8906 19.2578H52.0781C53.0814 19.2578 53.9403 19.615 54.6548 20.3295C55.3693 21.044 55.7266 21.9029 55.7266 22.9062V28.3789C55.7266 29.0782 55.5593 29.6938 55.2249 30.2259C54.8904 30.758 54.4496 31.1912 53.9023 31.5257V52.0937C53.9023 53.0971 53.5451 53.956 52.8306 54.6704C52.1161 55.3849 51.2572 55.7422 50.2539 55.7422H24.7148ZM24.7148 32.0273V52.0937H50.2539V32.0273H24.7148ZM22.8906 28.3789H52.0781V22.9062H22.8906V28.3789ZM32.0117 41.1484H42.957V37.5H32.0117V41.1484Z" fill="#D97706"/>
</svg>
