<svg width="38" height="44" viewBox="0 0 38 44" fill="none" xmlns="http://www.w3.org/2000/svg">
<path d="M9.70632 37.2778C8.86604 37.2778 8.14671 36.9786 7.54833 36.3802C6.94995 35.7818 6.65076 35.0625 6.65076 34.2222V18.9445C6.65076 18.1042 6.94995 17.3849 7.54833 16.7865C8.14671 16.1881 8.86604 15.8889 9.70632 15.8889H11.2341V12.8334C11.2341 10.7199 11.9789 8.91843 13.4685 7.42884C14.9581 5.93926 16.7596 5.19447 18.873 5.19447C20.9864 5.19447 22.7879 5.93926 24.2775 7.42884C25.7671 8.91843 26.5119 10.7199 26.5119 12.8334V15.8889H28.0396C28.8799 15.8889 29.5993 16.1881 30.1976 16.7865C30.796 17.3849 31.0952 18.1042 31.0952 18.9445V34.2222C31.0952 35.0625 30.796 35.7818 30.1976 36.3802C29.5993 36.9786 28.8799 37.2778 28.0396 37.2778H9.70632ZM9.70632 34.2222H28.0396V18.9445H9.70632V34.2222ZM18.873 29.6389C19.7133 29.6389 20.4326 29.3397 21.031 28.7413C21.6293 28.143 21.9285 27.4236 21.9285 26.5834C21.9285 25.7431 21.6293 25.0237 21.031 24.4254C20.4326 23.827 19.7133 23.5278 18.873 23.5278C18.0327 23.5278 17.3134 23.827 16.715 24.4254C16.1166 25.0237 15.8174 25.7431 15.8174 26.5834C15.8174 27.4236 16.1166 28.143 16.715 28.7413C17.3134 29.3397 18.0327 29.6389 18.873 29.6389ZM14.2897 15.8889H23.4563V12.8334C23.4563 11.5602 23.0107 10.478 22.1195 9.58683C21.2283 8.69563 20.1461 8.25002 18.873 8.25002C17.5998 8.25002 16.5177 8.69563 15.6265 9.58683C14.7353 10.478 14.2897 11.5602 14.2897 12.8334V15.8889Z" fill="#94A3B8"/>
</svg>
