<svg width="75" height="75" viewBox="0 0 75 75" fill="none" xmlns="http://www.w3.org/2000/svg">
<rect width="75" height="75" rx="12.4805" fill="#EFF6FF"/>
<path d="M28.3633 30.2031C27.36 30.2031 26.501 29.8459 25.7866 29.1314C25.0721 28.4169 24.7148 27.558 24.7148 26.5547V22.9063C24.7148 21.9029 25.0721 21.044 25.7866 20.3295C26.501 19.6151 27.36 19.2578 28.3633 19.2578H46.6055C47.6088 19.2578 48.4677 19.6151 49.1822 20.3295C49.8967 21.044 50.2539 21.9029 50.2539 22.9063V26.5547C50.2539 27.558 49.8967 28.4169 49.1822 29.1314C48.4677 29.8459 47.6088 30.2031 46.6055 30.2031H28.3633ZM28.3633 26.5547H46.6055V22.9063H28.3633V26.5547ZM22.8906 55.7422C21.8873 55.7422 21.0284 55.3849 20.3139 54.6705C19.5994 53.956 19.2422 53.0971 19.2422 52.0938V50.2695H55.7266V52.0938C55.7266 53.0971 55.3693 53.956 54.6548 54.6705C53.9403 55.3849 53.0814 55.7422 52.0781 55.7422H22.8906ZM19.2422 48.4453L25.5813 34.1708C25.8854 33.5019 26.3414 32.9775 26.9495 32.5974C27.5576 32.2174 28.2113 32.0273 28.9105 32.0273H46.0582C46.7575 32.0273 47.4112 32.2174 48.0192 32.5974C48.6273 32.9775 49.0834 33.5019 49.3874 34.1708L55.7266 48.4453H19.2422ZM31.0996 44.7969H32.9238C33.167 44.7969 33.3799 44.7057 33.5623 44.5232C33.7447 44.3408 33.8359 44.128 33.8359 43.8848C33.8359 43.6415 33.7447 43.4287 33.5623 43.2463C33.3799 43.0639 33.167 42.9727 32.9238 42.9727H31.0996C30.8564 42.9727 30.6435 43.0639 30.4611 43.2463C30.2787 43.4287 30.1875 43.6415 30.1875 43.8848C30.1875 44.128 30.2787 44.3408 30.4611 44.5232C30.6435 44.7057 30.8564 44.7969 31.0996 44.7969ZM31.0996 41.1484H32.9238C33.167 41.1484 33.3799 41.0572 33.5623 40.8748C33.7447 40.6924 33.8359 40.4796 33.8359 40.2363C33.8359 39.9931 33.7447 39.7803 33.5623 39.5979C33.3799 39.4154 33.167 39.3242 32.9238 39.3242H31.0996C30.8564 39.3242 30.6435 39.4154 30.4611 39.5979C30.2787 39.7803 30.1875 39.9931 30.1875 40.2363C30.1875 40.4796 30.2787 40.6924 30.4611 40.8748C30.6435 41.0572 30.8564 41.1484 31.0996 41.1484ZM31.0996 37.5H32.9238C33.167 37.5 33.3799 37.4088 33.5623 37.2264C33.7447 37.0439 33.8359 36.8311 33.8359 36.5879C33.8359 36.3447 33.7447 36.1318 33.5623 35.9494C33.3799 35.767 33.167 35.6758 32.9238 35.6758H31.0996C30.8564 35.6758 30.6435 35.767 30.4611 35.9494C30.2787 36.1318 30.1875 36.3447 30.1875 36.5879C30.1875 36.8311 30.2787 37.0439 30.4611 37.2264C30.6435 37.4088 30.8564 37.5 31.0996 37.5ZM36.5723 44.7969H38.3965C38.6397 44.7969 38.8525 44.7057 39.0349 44.5232C39.2174 44.3408 39.3086 44.128 39.3086 43.8848C39.3086 43.6415 39.2174 43.4287 39.0349 43.2463C38.8525 43.0639 38.6397 42.9727 38.3965 42.9727H36.5723C36.329 42.9727 36.1162 43.0639 35.9338 43.2463C35.7514 43.4287 35.6601 43.6415 35.6601 43.8848C35.6601 44.128 35.7514 44.3408 35.9338 44.5232C36.1162 44.7057 36.329 44.7969 36.5723 44.7969ZM36.5723 41.1484H38.3965C38.6397 41.1484 38.8525 41.0572 39.0349 40.8748C39.2174 40.6924 39.3086 40.4796 39.3086 40.2363C39.3086 39.9931 39.2174 39.7803 39.0349 39.5979C38.8525 39.4154 38.6397 39.3242 38.3965 39.3242H36.5723C36.329 39.3242 36.1162 39.4154 35.9338 39.5979C35.7514 39.7803 35.6601 39.9931 35.6601 40.2363C35.6601 40.4796 35.7514 40.6924 35.9338 40.8748C36.1162 41.0572 36.329 41.1484 36.5723 41.1484ZM36.5723 37.5H38.3965C38.6397 37.5 38.8525 37.4088 39.0349 37.2264C39.2174 37.0439 39.3086 36.8311 39.3086 36.5879C39.3086 36.3447 39.2174 36.1318 39.0349 35.9494C38.8525 35.767 38.6397 35.6758 38.3965 35.6758H36.5723C36.329 35.6758 36.1162 35.767 35.9338 35.9494C35.7514 36.1318 35.6601 36.3447 35.6601 36.5879C35.6601 36.8311 35.7514 37.0439 35.9338 37.2264C36.1162 37.4088 36.329 37.5 36.5723 37.5ZM42.0449 44.7969H43.8691C44.1124 44.7969 44.3252 44.7057 44.5076 44.5232C44.69 44.3408 44.7812 44.128 44.7812 43.8848C44.7812 43.6415 44.69 43.4287 44.5076 43.2463C44.3252 43.0639 44.1124 42.9727 43.8691 42.9727H42.0449C41.8017 42.9727 41.5889 43.0639 41.4064 43.2463C41.224 43.4287 41.1328 43.6415 41.1328 43.8848C41.1328 44.128 41.224 44.3408 41.4064 44.5232C41.5889 44.7057 41.8017 44.7969 42.0449 44.7969ZM42.0449 41.1484H43.8691C44.1124 41.1484 44.3252 41.0572 44.5076 40.8748C44.69 40.6924 44.7812 40.4796 44.7812 40.2363C44.7812 39.9931 44.69 39.7803 44.5076 39.5979C44.3252 39.4154 44.1124 39.3242 43.8691 39.3242H42.0449C41.8017 39.3242 41.5889 39.4154 41.4064 39.5979C41.224 39.7803 41.1328 39.9931 41.1328 40.2363C41.1328 40.4796 41.224 40.6924 41.4064 40.8748C41.5889 41.0572 41.8017 41.1484 42.0449 41.1484ZM42.0449 37.5H43.8691C44.1124 37.5 44.3252 37.4088 44.5076 37.2264C44.69 37.0439 44.7812 36.8311 44.7812 36.5879C44.7812 36.3447 44.69 36.1318 44.5076 35.9494C44.3252 35.767 44.1124 35.6758 43.8691 35.6758H42.0449C41.8017 35.6758 41.5889 35.767 41.4064 35.9494C41.224 36.1318 41.1328 36.3447 41.1328 36.5879C41.1328 36.8311 41.224 37.0439 41.4064 37.2264C41.5889 37.4088 41.8017 37.5 42.0449 37.5Z" fill="#2563EB"/>
</svg>
