<svg width="22" height="25" viewBox="0 0 22 25" fill="none" xmlns="http://www.w3.org/2000/svg">
<path d="M16.9428 20.3125L12.1902 15.5599L14.0131 13.737L18.7657 18.4896L16.9428 20.3125ZM4.96362 20.3125L3.1407 18.4896L9.13029 12.5L7.65459 11.0243L7.04695 11.632L5.94018 10.5252V12.3047L5.33254 12.9123L2.70668 10.2865L3.31432 9.67883H5.09383L4.00876 8.59376L7.09036 5.51216C7.37971 5.22281 7.69076 5.01303 8.02352 4.88282C8.35627 4.75261 8.69626 4.68751 9.04348 4.68751C9.3907 4.68751 9.73069 4.75261 10.0634 4.88282C10.3962 5.01303 10.7073 5.22281 10.9966 5.51216L9.00008 7.50869L10.0851 8.59376L9.47751 9.2014L10.9532 10.6771L12.9063 8.72397C12.8485 8.56483 12.8014 8.39845 12.7653 8.22484C12.7291 8.05123 12.711 7.87762 12.711 7.704C12.711 6.85042 13.004 6.13065 13.5899 5.54472C14.1759 4.95878 14.8956 4.66581 15.7492 4.66581C15.9662 4.66581 16.1724 4.68751 16.3677 4.73091C16.563 4.77432 16.7619 4.83942 16.9645 4.92623L14.8161 7.07466L16.3786 8.63716L18.527 6.48873C18.6283 6.69127 18.697 6.8902 18.7332 7.08551C18.7693 7.28083 18.7874 7.48699 18.7874 7.704C18.7874 8.55759 18.4944 9.27735 17.9085 9.86329C17.3226 10.4492 16.6028 10.7422 15.7492 10.7422C15.5756 10.7422 15.402 10.7277 15.2284 10.6988C15.0548 10.6699 14.8884 10.6192 14.7292 10.5469L4.96362 20.3125Z" fill="#475569"/>
</svg>
