<svg width="44" height="54" viewBox="0 0 44 54" fill="none" xmlns="http://www.w3.org/2000/svg">
<path d="M30.9634 35.6279C31.7223 35.6279 32.3673 35.3623 32.8986 34.8311C33.4298 34.2998 33.6954 33.6548 33.6954 32.8959C33.6954 32.137 33.4298 31.4919 32.8986 30.9607C32.3673 30.4294 31.7223 30.1638 30.9634 30.1638C30.2045 30.1638 29.5594 30.4294 29.0282 30.9607C28.4969 31.4919 28.2313 32.137 28.2313 32.8959C28.2313 33.6548 28.4969 34.2998 29.0282 34.8311C29.5594 35.3623 30.2045 35.6279 30.9634 35.6279ZM30.9634 41.092C31.9044 41.092 32.7696 40.872 33.5588 40.4318C34.3481 39.9916 34.9856 39.4073 35.4713 38.6787C34.8034 38.2841 34.0901 37.9805 33.3312 37.768C32.5722 37.5556 31.783 37.4493 30.9634 37.4493C30.1438 37.4493 29.3545 37.5556 28.5956 37.768C27.8367 37.9805 27.1233 38.2841 26.4555 38.6787C26.9412 39.4073 27.5787 39.9916 28.3679 40.4318C29.1572 40.872 30.0223 41.092 30.9634 41.092ZM21.8565 44.7348C17.637 43.6723 14.1536 41.2514 11.4064 37.4721C8.65914 33.6927 7.28552 29.496 7.28552 24.8818V13.7715L21.8565 8.30734L36.4275 13.7715V24.1077C35.8507 23.8649 35.2588 23.6448 34.6516 23.4475C34.0445 23.2502 33.4222 23.106 32.7847 23.0149V16.3214L21.8565 12.2233L10.9283 16.3214V24.8818C10.9283 26.3086 11.118 27.7353 11.4974 29.1621C11.8769 30.5888 12.4081 31.9472 13.0911 33.2374C13.7742 34.5275 14.6014 35.719 15.5728 36.8118C16.5442 37.9046 17.6218 38.8153 18.8057 39.5439C19.1396 40.5153 19.5798 41.4411 20.1262 42.3215C20.6726 43.2018 21.2949 43.9911 21.9931 44.6893C21.9628 44.6893 21.94 44.6968 21.9248 44.712C21.9096 44.7272 21.8869 44.7348 21.8565 44.7348ZM30.9634 44.7348C28.4438 44.7348 26.2961 43.8469 24.5203 42.071C22.7444 40.2952 21.8565 38.1475 21.8565 35.6279C21.8565 33.1084 22.7444 30.9607 24.5203 29.1848C26.2961 27.409 28.4438 26.5211 30.9634 26.5211C33.4829 26.5211 35.6306 27.409 37.4065 29.1848C39.1823 30.9607 40.0702 33.1084 40.0702 35.6279C40.0702 38.1475 39.1823 40.2952 37.4065 42.071C35.6306 43.8469 33.4829 44.7348 30.9634 44.7348Z" fill="#059669"/>
</svg>
