<svg width="44" height="54" viewBox="0 0 44 54" fill="none" xmlns="http://www.w3.org/2000/svg">
<path d="M11.8389 41.092C9.07649 41.092 6.71629 40.1358 4.75831 38.2234C2.80034 36.3109 1.82135 33.9735 1.82135 31.2111C1.82135 28.8433 2.53472 26.7336 3.96146 24.8818C5.38821 23.0301 7.25511 21.8462 9.56219 21.3302C10.3211 18.5374 11.8389 16.2758 14.1156 14.5455C16.3923 12.8152 18.9726 11.9501 21.8565 11.9501C25.4081 11.9501 28.421 13.1871 30.895 15.6611C33.369 18.1352 34.6061 21.148 34.6061 24.6997C36.7006 24.9425 38.4385 25.8456 39.8197 27.409C41.201 28.9723 41.8916 30.8013 41.8916 32.8959C41.8916 35.1726 41.0947 37.1078 39.501 38.7015C37.9073 40.2952 35.9721 41.092 33.6954 41.092H23.6778C22.6761 41.092 21.8185 40.7354 21.1051 40.022C20.3918 39.3086 20.0351 38.4511 20.0351 37.4493V28.0692L17.1209 30.8924L14.571 28.3424L21.8565 21.0569L29.1419 28.3424L26.592 30.8924L23.6778 28.0692V37.4493H33.6954C34.9703 37.4493 36.048 37.0091 36.9283 36.1288C37.8086 35.2485 38.2488 34.1708 38.2488 32.8959C38.2488 31.6209 37.8086 30.5433 36.9283 29.6629C36.048 28.7826 34.9703 28.3424 33.6954 28.3424H30.9633V24.6997C30.9633 22.1801 30.0754 20.0324 28.2996 18.2566C26.5237 16.4807 24.376 15.5928 21.8565 15.5928C19.3369 15.5928 17.1892 16.4807 15.4133 18.2566C13.6375 20.0324 12.7496 22.1801 12.7496 24.6997H11.8389C10.0782 24.6997 8.57561 25.322 7.331 26.5666C6.0864 27.8112 5.4641 29.3138 5.4641 31.0745C5.4641 32.8352 6.0864 34.3378 7.331 35.5824C8.57561 36.827 10.0782 37.4493 11.8389 37.4493H16.3923V41.092H11.8389Z" fill="#475569"/>
</svg>
