<svg width="44" height="54" viewBox="0 0 44 54" fill="none" xmlns="http://www.w3.org/2000/svg">
<path d="M9.10683 44.7347C8.10508 44.7347 7.24752 44.3781 6.53414 43.6647C5.82077 42.9513 5.46409 42.0938 5.46409 41.092V20.556C4.91768 20.2221 4.47751 19.7895 4.14359 19.2583C3.80967 18.7271 3.64272 18.1124 3.64272 17.4142V11.95C3.64272 10.9483 3.9994 10.0907 4.71277 9.37735C5.42614 8.66398 6.28371 8.30729 7.28546 8.30729H36.4274C37.4292 8.30729 38.2867 8.66398 39.0001 9.37735C39.7135 10.0907 40.0702 10.9483 40.0702 11.95V17.4142C40.0702 18.1124 39.9032 18.7271 39.5693 19.2583C39.2354 19.7895 38.7952 20.2221 38.2488 20.556V41.092C38.2488 42.0938 37.8921 42.9513 37.1787 43.6647C36.4654 44.3781 35.6078 44.7347 34.6061 44.7347H9.10683ZM9.10683 21.0569V41.092H34.6061V21.0569H9.10683ZM7.28546 17.4142H36.4274V11.95H7.28546V17.4142ZM16.3923 30.1638H27.3206V26.521H16.3923V30.1638Z" fill="#D97706"/>
</svg>
