<svg width="44" height="54" viewBox="0 0 44 54" fill="none" xmlns="http://www.w3.org/2000/svg">
<path d="M12.7496 19.2356C11.7479 19.2356 10.8903 18.8789 10.1769 18.1655C9.46357 17.4521 9.10688 16.5946 9.10688 15.5928V11.9501C9.10688 10.9483 9.46357 10.0908 10.1769 9.3774C10.8903 8.66402 11.7479 8.30734 12.7496 8.30734H30.9634C31.9651 8.30734 32.8227 8.66402 33.536 9.3774C34.2494 10.0908 34.6061 10.9483 34.6061 11.9501V15.5928C34.6061 16.5946 34.2494 17.4521 33.536 18.1655C32.8227 18.8789 31.9651 19.2356 30.9634 19.2356H12.7496ZM12.7496 15.5928H30.9634V11.9501H12.7496V15.5928ZM7.28551 44.7348C6.28375 44.7348 5.42619 44.3781 4.71282 43.6647C3.99945 42.9514 3.64276 42.0938 3.64276 41.092V39.2707H40.0702V41.092C40.0702 42.0938 39.7135 42.9514 39.0002 43.6647C38.2868 44.3781 37.4292 44.7348 36.4275 44.7348H7.28551ZM3.64276 37.4493L9.97203 23.1971C10.2756 22.5292 10.7309 22.0056 11.3381 21.6261C11.9452 21.2467 12.5978 21.0569 13.296 21.0569H30.4169C31.1151 21.0569 31.7678 21.2467 32.3749 21.6261C32.982 22.0056 33.4374 22.5292 33.7409 23.1971L40.0702 37.4493H3.64276ZM15.4817 33.8066H17.3031C17.5459 33.8066 17.7584 33.7155 17.9405 33.5334C18.1227 33.3512 18.2137 33.1387 18.2137 32.8959C18.2137 32.653 18.1227 32.4405 17.9405 32.2584C17.7584 32.0763 17.5459 31.9852 17.3031 31.9852H15.4817C15.2388 31.9852 15.0263 32.0763 14.8442 32.2584C14.6621 32.4405 14.571 32.653 14.571 32.8959C14.571 33.1387 14.6621 33.3512 14.8442 33.5334C15.0263 33.7155 15.2388 33.8066 15.4817 33.8066ZM15.4817 30.1638H17.3031C17.5459 30.1638 17.7584 30.0727 17.9405 29.8906C18.1227 29.7085 18.2137 29.496 18.2137 29.2531C18.2137 29.0103 18.1227 28.7978 17.9405 28.6156C17.7584 28.4335 17.5459 28.3424 17.3031 28.3424H15.4817C15.2388 28.3424 15.0263 28.4335 14.8442 28.6156C14.6621 28.7978 14.571 29.0103 14.571 29.2531C14.571 29.496 14.6621 29.7085 14.8442 29.8906C15.0263 30.0727 15.2388 30.1638 15.4817 30.1638ZM15.4817 26.5211H17.3031C17.5459 26.5211 17.7584 26.43 17.9405 26.2479C18.1227 26.0657 18.2137 25.8532 18.2137 25.6104C18.2137 25.3675 18.1227 25.155 17.9405 24.9729C17.7584 24.7908 17.5459 24.6997 17.3031 24.6997H15.4817C15.2388 24.6997 15.0263 24.7908 14.8442 24.9729C14.6621 25.155 14.571 25.3675 14.571 25.6104C14.571 25.8532 14.6621 26.0657 14.8442 26.2479C15.0263 26.43 15.2388 26.5211 15.4817 26.5211ZM20.9458 33.8066H22.7672C23.01 33.8066 23.2225 33.7155 23.4047 33.5334C23.5868 33.3512 23.6779 33.1387 23.6779 32.8959C23.6779 32.653 23.5868 32.4405 23.4047 32.2584C23.2225 32.0763 23.01 31.9852 22.7672 31.9852H20.9458C20.703 31.9852 20.4905 32.0763 20.3083 32.2584C20.1262 32.4405 20.0351 32.653 20.0351 32.8959C20.0351 33.1387 20.1262 33.3512 20.3083 33.5334C20.4905 33.7155 20.703 33.8066 20.9458 33.8066ZM20.9458 30.1638H22.7672C23.01 30.1638 23.2225 30.0727 23.4047 29.8906C23.5868 29.7085 23.6779 29.496 23.6779 29.2531C23.6779 29.0103 23.5868 28.7978 23.4047 28.6156C23.2225 28.4335 23.01 28.3424 22.7672 28.3424H20.9458C20.703 28.3424 20.4905 28.4335 20.3083 28.6156C20.1262 28.7978 20.0351 29.0103 20.0351 29.2531C20.0351 29.496 20.1262 29.7085 20.3083 29.8906C20.4905 30.0727 20.703 30.1638 20.9458 30.1638ZM20.9458 26.5211H22.7672C23.01 26.5211 23.2225 26.43 23.4047 26.2479C23.5868 26.0657 23.6779 25.8532 23.6779 25.6104C23.6779 25.3675 23.5868 25.155 23.4047 24.9729C23.2225 24.7908 23.01 24.6997 22.7672 24.6997H20.9458C20.703 24.6997 20.4905 24.7908 20.3083 24.9729C20.1262 25.155 20.0351 25.3675 20.0351 25.6104C20.0351 25.8532 20.1262 26.0657 20.3083 26.2479C20.4905 26.43 20.703 26.5211 20.9458 26.5211ZM26.4099 33.8066H28.2313C28.4741 33.8066 28.6866 33.7155 28.8688 33.5334C29.0509 33.3512 29.142 33.1387 29.142 32.8959C29.142 32.653 29.0509 32.4405 28.8688 32.2584C28.6866 32.0763 28.4741 31.9852 28.2313 31.9852H26.4099C26.1671 31.9852 25.9546 32.0763 25.7724 32.2584C25.5903 32.4405 25.4992 32.653 25.4992 32.8959C25.4992 33.1387 25.5903 33.3512 25.7724 33.5334C25.9546 33.7155 26.1671 33.8066 26.4099 33.8066ZM26.4099 30.1638H28.2313C28.4741 30.1638 28.6866 30.0727 28.8688 29.8906C29.0509 29.7085 29.142 29.496 29.142 29.2531C29.142 29.0103 29.0509 28.7978 28.8688 28.6156C28.6866 28.4335 28.4741 28.3424 28.2313 28.3424H26.4099C26.1671 28.3424 25.9546 28.4335 25.7724 28.6156C25.5903 28.7978 25.4992 29.0103 25.4992 29.2531C25.4992 29.496 25.5903 29.7085 25.7724 29.8906C25.9546 30.0727 26.1671 30.1638 26.4099 30.1638ZM26.4099 26.5211H28.2313C28.4741 26.5211 28.6866 26.43 28.8688 26.2479C29.0509 26.0657 29.142 25.8532 29.142 25.6104C29.142 25.3675 29.0509 25.155 28.8688 24.9729C28.6866 24.7908 28.4741 24.6997 28.2313 24.6997H26.4099C26.1671 24.6997 25.9546 24.7908 25.7724 24.9729C25.5903 25.155 25.4992 25.3675 25.4992 25.6104C25.4992 25.8532 25.5903 26.0657 25.7724 26.2479C25.9546 26.43 26.1671 26.5211 26.4099 26.5211Z" fill="#2563EB"/>
</svg>
