<svg width="64" height="64" viewBox="0 0 64 64" fill="none" xmlns="http://www.w3.org/2000/svg">
<path d="M54.3756 46.927L39.7264 29.1742V13.2835H42.3335C43.8232 13.2835 45.0647 12.0421 45.0647 10.5523C45.0647 9.18673 43.8232 7.94527 42.3335 7.94527H21.2288C19.739 7.94527 18.4976 9.18673 18.4976 10.5523C18.4976 12.0421 19.739 13.2835 21.2288 13.2835H23.8358V29.1742L9.18665 46.927C8.31763 48.0443 7.94519 49.1616 7.94519 50.2789C7.94519 53.0101 10.0557 55.6171 13.2834 55.6171H50.2788C53.5066 55.6171 55.6171 53.0101 55.6171 50.2789C55.6171 49.1616 55.2446 48.0443 54.3756 46.927Z" fill="#10B981"/>
</svg>
